<svg xmlns="http://www.w3.org/2000/svg" xmlns:xlink="http://www.w3.org/1999/xlink" width="1366" zoomAndPan="magnify" viewBox="0 0 1024.5 576" height="768" preserveAspectRatio="xMidYMid meet" version="1.0"><defs><clipPath id="05436b10f4"><path d="M 0 0.140625 L 496 0.140625 L 496 266 L 0 266 Z M 0 0.140625 " clip-rule="nonzero"/></clipPath><clipPath id="34b32a88be"><path d="M -183.625 24.824219 L 478.480469 -149.804688 L 541.984375 90.960938 L -120.125 265.589844 Z M -183.625 24.824219 " clip-rule="nonzero"/></clipPath><clipPath id="66019149ec"><path d="M -183.625 24.824219 L 478.480469 -149.804688 L 541.984375 90.960938 L -120.125 265.589844 Z M -183.625 24.824219 " clip-rule="nonzero"/></clipPath><clipPath id="8861531955"><path d="M 599 189 L 1024 189 L 1024 575.859375 L 599 575.859375 Z M 599 189 " clip-rule="nonzero"/></clipPath><clipPath id="bd0ceb2a35"><path d="M 1461.09375 491.347656 L 628.421875 772.945312 L 526.066406 470.28125 L 1358.738281 188.683594 Z M 1461.09375 491.347656 " clip-rule="nonzero"/></clipPath><clipPath id="0b96eba02d"><path d="M 1461.09375 491.347656 L 628.421875 772.945312 L 526.066406 470.28125 L 1358.738281 188.683594 Z M 1461.09375 491.347656 " clip-rule="nonzero"/></clipPath></defs><g clip-path="url(#05436b10f4)"><g clip-path="url(#34b32a88be)"><g clip-path="url(#66019149ec)"><path fill="#ffffff" d="M -131.742188 217.613281 L -132.582031 217.488281 C -127.859375 167.167969 -94.859375 115.621094 -44.476562 79.699219 C -5.265625 51.6875 43.90625 32.597656 110.042969 19.660156 C 136.703125 14.476562 164.027344 10.5 190.488281 6.753906 C 218.164062 2.804688 246.839844 -1.292969 274.765625 -6.925781 C 306.980469 -13.347656 348.425781 -23.699219 383.589844 -46.484375 C 421.144531 -70.710938 447.46875 -107.332031 473.003906 -142.589844 C 474.597656 -144.855469 476.296875 -147.152344 478 -149.449219 L 478.707031 -148.941406 C 477.007812 -146.648438 475.414062 -144.378906 473.714844 -142.082031 C 448.101562 -106.6875 421.773438 -70.066406 384.140625 -45.707031 C 348.898438 -22.785156 307.316406 -12.511719 275.023438 -5.957031 C 247.097656 -0.324219 218.421875 3.777344 190.746094 7.726562 C 164.28125 11.472656 136.957031 15.445312 110.40625 20.601562 C 44.378906 33.511719 -4.578125 52.546875 -43.816406 80.449219 C -94.230469 116.261719 -127.070312 167.535156 -131.742188 217.613281 Z M -121.652344 186.777344 C -116.949219 176.183594 -111.320312 166.039062 -104.738281 156.449219 C -85.609375 127.960938 -62.398438 103.132812 -37.617188 84.703125 C 1.871094 55.578125 53.105469 34.675781 114.683594 22.824219 C 119.082031 22.007812 123.480469 21.195312 128.015625 20.460938 C 148.988281 16.894531 170.410156 14.589844 191.183594 12.460938 C 207.800781 10.734375 224.847656 8.894531 241.613281 6.4375 C 255.382812 4.421875 267.53125 2.371094 278.511719 0.28125 C 303.3125 -4.523438 323.09375 -9.972656 340.996094 -16.890625 C 356.929688 -22.941406 372.214844 -31.011719 386.398438 -40.644531 C 401.039062 -50.742188 415.285156 -63.621094 429.730469 -80.132812 C 442.605469 -94.730469 454.621094 -110.832031 466.210938 -126.363281 C 470.648438 -132.265625 475.167969 -138.308594 479.71875 -144.242188 L 479.007812 -144.75 C 474.460938 -138.816406 469.941406 -132.773438 465.5 -126.867188 C 442.429688 -95.839844 418.449219 -63.878906 385.875 -41.3125 C 371.800781 -31.710938 356.59375 -23.773438 340.660156 -17.726562 C 322.867188 -10.839844 303.082031 -5.390625 278.394531 -0.609375 C 267.300781 1.507812 255.261719 3.527344 241.492188 5.542969 C 224.726562 8.003906 207.679688 9.84375 191.066406 11.570312 C 170.289062 13.699219 148.761719 16.027344 127.789062 19.597656 C 123.359375 20.304688 118.851562 21.144531 114.453125 21.960938 C 52.796875 33.949219 1.429688 54.773438 -38.140625 84.03125 C -63.03125 102.492188 -86.347656 127.347656 -105.445312 155.941406 C -112.03125 165.53125 -117.738281 175.8125 -122.441406 186.40625 C -127.300781 197.273438 -130.398438 208.714844 -131.785156 220.511719 L -130.941406 220.636719 C -129.636719 208.976562 -126.433594 197.507812 -121.652344 186.777344 Z M -119.117188 190.265625 C -113.414062 179.523438 -106.636719 170.230469 -100.09375 161.804688 C -82.488281 138.917969 -58.738281 110.019531 -31.207031 88.902344 C 8.804688 58.253906 60.859375 36.09375 119.28125 24.957031 C 123.679688 24.144531 128.078125 23.332031 132.507812 22.625 C 152.753906 19.363281 173.621094 18.015625 193.785156 16.625 C 210.785156 15.492188 228.351562 14.320312 245.5 11.992188 C 259.113281 10.25 271.179688 8.335938 282.378906 6.191406 C 306.664062 1.632812 326.960938 -4.066406 344.449219 -11.21875 C 360.191406 -17.566406 375.070312 -25.875 388.816406 -35.855469 C 417.351562 -56.660156 438.917969 -85.097656 459.789062 -112.660156 C 466.542969 -121.597656 473.671875 -130.871094 480.777344 -139.789062 L 480.175781 -140.320312 C 472.960938 -131.375 465.941406 -122.132812 459.1875 -113.191406 C 438.285156 -85.738281 416.828125 -57.332031 388.402344 -36.550781 C 374.761719 -26.605469 359.855469 -18.398438 344.222656 -12.082031 C 326.734375 -4.929688 306.4375 0.769531 282.257812 5.300781 C 271.058594 7.445312 259.070312 9.222656 245.488281 11.070312 C 228.449219 13.371094 210.878906 14.542969 193.878906 15.675781 C 173.714844 17.066406 152.847656 18.414062 132.601562 21.675781 C 128.175781 22.382812 123.777344 23.195312 119.378906 24.007812 C 60.742188 35.203125 8.578125 57.390625 -31.542969 88.066406 C -59.179688 109.210938 -82.902344 138.21875 -100.507812 161.105469 C -107.023438 169.640625 -113.800781 178.933594 -119.503906 189.675781 C -125.808594 201.617188 -129.480469 212.628906 -130.691406 223.34375 L -129.851562 223.46875 C -128.933594 212.949219 -125.34375 202.070312 -119.117188 190.265625 Z M -116.472656 193.726562 C -110.242188 184.113281 -102.699219 175.542969 -95.453125 167.164062 C -91.453125 162.644531 -87.589844 158.046875 -83.328125 153.226562 C -65.128906 132.144531 -46.453125 110.242188 -24.792969 93.097656 C 16.222656 60.570312 67.644531 37.769531 123.804688 27.230469 C 128.203125 26.417969 132.628906 25.710938 137.054688 25.003906 C 156.792969 21.992188 177.398438 21.410156 197.222656 20.914062 C 214.394531 20.429688 232.023438 19.933594 249.230469 17.820312 C 262.652344 16.246094 274.671875 14.578125 286.003906 12.511719 C 310.132812 8.226562 330.402344 2.417969 347.777344 -5.167969 C 363.324219 -11.808594 377.902344 -20.386719 391.210938 -30.710938 C 416.195312 -50.117188 435.769531 -75.605469 454.625 -100.324219 C 463.34375 -111.863281 472.441406 -123.730469 481.949219 -134.902344 L 481.347656 -135.433594 C 471.835938 -124.265625 462.742188 -112.398438 453.914062 -100.832031 C 435.167969 -76.140625 415.699219 -50.679688 390.6875 -31.382812 C 377.378906 -21.058594 362.910156 -12.507812 347.46875 -5.894531 C 330.066406 1.582031 309.90625 7.363281 285.804688 11.753906 C 274.578125 13.792969 262.453125 15.488281 249.136719 17.039062 C 232.042969 19.121094 214.300781 19.644531 197.238281 20.101562 C 177.441406 20.703125 156.835938 21.289062 136.964844 24.222656 C 132.539062 24.925781 128.109375 25.632812 123.710938 26.445312 C 67.339844 37.042969 15.808594 59.871094 -25.289062 92.535156 C -46.917969 109.789062 -65.730469 131.609375 -83.902344 152.800781 C -88.027344 157.699219 -92.027344 162.21875 -96.027344 166.738281 C -103.382812 175.144531 -110.925781 183.714844 -117.125 193.4375 C -124.574219 204.984375 -128.871094 215.816406 -130.1875 226.558594 L -129.347656 226.683594 C -128.027344 215.941406 -123.84375 205.136719 -116.472656 193.726562 Z M -113.800781 197.292969 C -108.214844 190.046875 -101.914062 183.765625 -95.238281 177.15625 C -93.796875 175.621094 -92.222656 174.164062 -90.671875 172.601562 C -82.183594 164.125 -73.917969 154.785156 -65.121094 144.84375 C -50.460938 128.277344 -35.242188 111.210938 -18.382812 97.296875 C 22.941406 63.300781 75.050781 39.164062 128.402344 29.367188 C 132.800781 28.550781 137.230469 27.847656 141.578125 27.277344 C 161.152344 24.539062 181.5 24.714844 201.277344 24.925781 C 218.269531 25.0625 235.964844 25.246094 252.929688 23.542969 C 266.734375 22.097656 278.78125 20.535156 289.605469 18.722656 C 313.652344 14.570312 333.785156 8.683594 351.101562 0.882812 C 366.351562 -6.023438 380.703125 -15.007812 393.578125 -25.675781 C 415.761719 -43.886719 433.390625 -67.125 450.410156 -89.628906 C 460.78125 -103.21875 471.46875 -117.355469 483.066406 -130.230469 L 482.464844 -130.765625 C 470.867188 -117.890625 460.148438 -103.863281 449.808594 -90.164062 C 432.761719 -67.769531 415.132812 -44.527344 393.160156 -26.375 C 380.289062 -15.707031 366.015625 -6.859375 350.875 0.0195312 C 333.664062 7.792969 313.640625 13.652344 289.59375 17.800781 C 278.769531 19.617188 266.75 21.285156 252.945312 22.730469 C 235.980469 24.433594 218.394531 24.222656 201.292969 24.113281 C 181.515625 23.902344 161.171875 23.726562 141.484375 26.492188 C 137.136719 27.0625 132.601562 27.796875 128.3125 28.582031 C 74.851562 38.410156 22.554688 62.710938 -18.875 96.734375 C -35.734375 110.648438 -50.957031 127.714844 -65.726562 144.3125 C -74.550781 154.144531 -82.8125 163.484375 -91.273438 172.066406 C -92.824219 173.628906 -94.371094 175.195312 -95.839844 176.621094 C -102.515625 183.230469 -108.789062 189.621094 -114.511719 196.789062 C -123.132812 207.835938 -127.941406 218.460938 -129.3125 229.445312 L -128.472656 229.570312 C -127.152344 218.828125 -122.34375 208.207031 -113.800781 197.292969 Z M -111.375 200.8125 C -106.09375 195.03125 -100.234375 190.136719 -94.136719 184.832031 C -91.59375 182.660156 -88.867188 180.324219 -86.246094 178.015625 C -74.667969 167.6875 -63.820312 155.472656 -52.222656 142.597656 C -39.585938 128.410156 -26.496094 113.757812 -12.261719 101.6875 C 29.84375 65.871094 81.324219 41.089844 132.707031 31.695312 C 136.890625 30.9375 141.210938 30.261719 145.910156 29.714844 C 165.222656 27.277344 185.304688 28.214844 204.714844 29.214844 C 221.769531 30.03125 239.527344 30.890625 256.445312 29.429688 C 270.550781 28.25 282.164062 26.804688 292.988281 24.988281 C 316.957031 20.976562 336.980469 15.117188 354.183594 6.882812 C 369.238281 -0.320312 383.183594 -9.539062 395.726562 -20.585938 C 415.410156 -37.785156 431.46875 -59.113281 446.996094 -79.835938 C 458.585938 -95.367188 470.519531 -111.332031 483.996094 -125.394531 L 483.394531 -125.929688 C 469.917969 -111.867188 458.011719 -95.792969 446.285156 -80.34375 C 430.867188 -59.648438 414.808594 -38.320312 395.203125 -21.257812 C 382.769531 -10.238281 368.824219 -1.019531 353.847656 6.050781 C 336.75 14.253906 316.835938 20.082031 292.976562 24.066406 C 282.152344 25.882812 270.507812 27.222656 256.429688 28.507812 C 239.515625 29.96875 221.867188 29.082031 204.8125 28.265625 C 185.292969 27.292969 165.207031 26.355469 145.789062 28.820312 C 141.089844 29.367188 136.769531 30.046875 132.589844 30.804688 C 81.066406 40.117188 29.402344 65.0625 -12.679688 100.988281 C -26.992188 113.195312 -40.078125 127.847656 -52.714844 142.035156 C -64.175781 154.988281 -75.132812 167.234375 -86.632812 177.425781 C -89.332031 179.871094 -91.980469 182.070312 -94.523438 184.242188 C -100.648438 189.4375 -106.480469 194.4375 -111.871094 200.25 C -121.550781 210.769531 -126.957031 221.316406 -128.542969 232.359375 L -127.703125 232.484375 C -126.304688 221.609375 -120.867188 211.167969 -111.375 200.8125 Z M -108.730469 204.269531 C -103.628906 199.574219 -98.1875 195.714844 -92.480469 191.554688 C -88.886719 188.992188 -85.21875 186.289062 -81.496094 183.34375 C -67.359375 172.226562 -54.75 157.929688 -41.238281 142.703125 C -29.960938 129.914062 -18.3125 116.792969 -5.769531 105.75 C 36.910156 68.164062 87.730469 42.632812 137.308594 33.832031 C 141.597656 33.046875 146.054688 32.449219 150.402344 31.878906 C 169.417969 29.632812 189.378906 31.414062 208.636719 33.148438 C 225.753906 34.636719 243.359375 36.230469 260.222656 35.015625 C 274.492188 34.023438 286.136719 32.683594 296.773438 31.035156 C 320.691406 27.265625 340.65625 21.191406 357.589844 12.800781 C 372.453125 5.300781 386.066406 -4.296875 398.171875 -15.6875 C 415.675781 -31.96875 430.214844 -51.621094 444.191406 -70.785156 C 456.84375 -87.976562 469.890625 -105.851562 485.085938 -120.832031 L 484.453125 -121.472656 C 469.179688 -106.359375 456.105469 -88.589844 443.480469 -71.289062 C 429.476562 -52.238281 415.074219 -32.5 397.648438 -16.359375 C 385.652344 -4.996094 372.007812 4.492188 357.253906 11.964844 C 340.351562 20.464844 320.464844 26.402344 296.652344 30.140625 C 286.015625 31.792969 274.480469 33.101562 260.210938 34.09375 C 243.347656 35.308594 225.742188 33.71875 208.730469 32.199219 C 189.367188 30.492188 169.40625 28.714844 150.28125 30.984375 C 145.90625 31.449219 141.480469 32.152344 137.082031 32.96875 C 87.394531 41.800781 36.386719 67.492188 -6.402344 105.105469 C -19.050781 116.179688 -30.671875 129.40625 -41.945312 142.195312 C -55.355469 157.394531 -67.960938 171.691406 -82.019531 182.675781 C -85.738281 185.621094 -89.410156 188.320312 -93.003906 190.882812 C -98.710938 195.046875 -104.148438 198.90625 -109.253906 203.601562 C -119.949219 213.347656 -126.136719 223.988281 -127.773438 235.277344 L -126.933594 235.402344 C -125.320312 224.464844 -119.210938 213.960938 -108.730469 204.269531 Z M -106.167969 207.867188 C -101.109375 203.875 -95.820312 200.75 -90.15625 197.292969 C -85.785156 194.636719 -81.300781 191.953125 -76.824219 188.8125 C -60.554688 177.476562 -46.671875 161.457031 -31.773438 144.480469 C -21.511719 132.648438 -10.769531 120.464844 0.5625 110.082031 C 43.8125 70.730469 94.003906 44.558594 141.828125 36.101562 C 146.011719 35.347656 150.359375 34.777344 154.953125 34.257812 C 173.808594 32.285156 193.507812 34.828125 212.722656 37.265625 C 229.792969 39.460938 247.355469 41.757812 264.058594 40.816406 C 278.144531 39.988281 289.734375 38.894531 300.480469 37.214844 C 324.535156 33.527344 344.394531 27.480469 360.996094 18.714844 C 375.554688 10.949219 388.871094 1.085938 400.539062 -10.652344 C 416.1875 -26.097656 429.335938 -44.460938 441.980469 -62.117188 C 455.367188 -80.890625 469.257812 -100.375 486.09375 -116.132812 L 485.464844 -116.773438 C 468.519531 -100.988281 454.628906 -81.503906 441.132812 -62.703125 C 428.519531 -44.9375 415.449219 -26.710938 399.800781 -11.265625 C 388.210938 0.335938 374.898438 10.199219 360.445312 17.9375 C 343.839844 26.703125 324.199219 32.691406 300.144531 36.378906 C 289.398438 38.058594 277.808594 39.152344 263.832031 39.953125 C 247.125 40.894531 229.566406 38.597656 212.601562 36.375 C 193.390625 33.9375 173.550781 31.316406 154.695312 33.285156 C 150.105469 33.804688 145.753906 34.375 141.574219 35.132812 C 93.609375 43.507812 43.371094 69.921875 -0.0976562 109.332031 C -11.539062 119.742188 -22.171875 131.898438 -32.539062 143.757812 C -47.328125 160.707031 -61.210938 176.726562 -77.40625 187.925781 C -81.882812 191.070312 -86.363281 193.75 -90.738281 196.40625 C -96.398438 199.863281 -101.6875 202.992188 -106.75 206.980469 C -114.78125 213.257812 -124.921875 223.785156 -127.140625 238.109375 L -126.300781 238.234375 C -123.96875 224.339844 -114.121094 214.007812 -106.167969 207.867188 Z M -103.632812 211.355469 C -98.539062 207.933594 -93.246094 205.265625 -87.519531 202.488281 C -82.519531 200.011719 -77.335938 197.375 -72.183594 194.167969 C -53.933594 182.890625 -38.136719 164.519531 -22.976562 146.777344 C -13.464844 135.609375 -3.582031 124.109375 6.976562 114.28125 C 50.71875 73.296875 100.222656 46.269531 146.320312 38.265625 C 150.640625 37.589844 154.988281 37.019531 159.363281 36.558594 C 177.925781 34.78125 197.609375 38.132812 216.589844 41.441406 C 233.511719 44.371094 251.132812 47.34375 267.679688 46.675781 C 279.796875 46.25 291.984375 45.230469 304 43.5625 C 327.894531 40.148438 347.507812 34.050781 364.214844 24.792969 C 378.582031 16.730469 391.59375 6.601562 402.824219 -5.480469 C 416.832031 -20.148438 428.808594 -37.277344 440.222656 -53.914062 C 454.265625 -74.132812 468.679688 -95.140625 487.050781 -111.1875 L 486.527344 -111.859375 C 468.183594 -95.703125 453.664062 -74.667969 439.621094 -54.449219 C 428.175781 -37.921875 416.230469 -20.683594 402.300781 -6.152344 C 391.152344 5.796875 378.164062 16.035156 363.878906 23.960938 C 347.359375 33.050781 327.746094 39.148438 303.988281 42.640625 C 291.96875 44.308594 279.785156 45.332031 267.667969 45.753906 C 251.121094 46.421875 233.605469 43.421875 216.714844 40.601562 C 197.628906 37.320312 177.941406 33.96875 159.273438 35.773438 C 154.898438 36.234375 150.550781 36.804688 146.121094 37.511719 C 99.886719 45.433594 50.167969 72.519531 6.238281 113.667969 C -4.292969 123.605469 -14.175781 135.101562 -23.6875 146.273438 C -38.84375 164.011719 -54.539062 182.355469 -72.707031 193.5 C -77.855469 196.703125 -82.964844 199.207031 -87.933594 201.789062 C -93.523438 204.648438 -98.925781 207.34375 -104.15625 210.6875 C -120.058594 221.230469 -124.988281 233.15625 -126.179688 241.320312 L -125.339844 241.445312 C -123.148438 227.011719 -112.269531 217.097656 -103.632812 211.355469 Z M -100.992188 214.816406 C -95.753906 211.933594 -90.347656 209.699219 -84.722656 207.40625 C -79.097656 205.117188 -73.257812 202.765625 -67.539062 199.527344 C -47.367188 188.546875 -30.773438 168.8125 -14.636719 149.542969 C -5.6875 138.867188 3.53125 127.894531 13.359375 118.371094 C 69.960938 63.601562 119.449219 45.699219 150.921875 40.402344 C 155.242188 39.726562 159.589844 39.15625 163.886719 38.832031 C 182.289062 37.324219 201.820312 41.414062 220.648438 45.453125 C 237.492188 48.980469 254.964844 52.683594 271.460938 52.261719 C 283.523438 52.082031 295.738281 51.167969 307.648438 49.527344 C 331.464844 46.25 351.050781 40.042969 367.484375 30.628906 C 380.90625 22.933594 393.21875 12.757812 405.132812 -0.664062 C 417.71875 -14.605469 428.460938 -30.722656 438.886719 -46.289062 C 453.375 -67.894531 468.335938 -90.316406 488.113281 -106.734375 L 487.589844 -107.402344 C 467.707031 -90.957031 452.742188 -68.535156 438.179688 -46.792969 C 427.753906 -31.226562 417.007812 -15.113281 404.53125 -1.199219 C 392.585938 12.113281 380.386719 22.261719 367.066406 29.929688 C 350.636719 39.347656 331.160156 45.523438 307.449219 48.773438 C 295.511719 50.304688 283.296875 51.21875 271.261719 51.503906 C 254.875 51.902344 237.402344 48.195312 220.554688 44.667969 C 201.621094 40.65625 181.953125 36.488281 163.46875 38.132812 C 159.066406 38.484375 154.71875 39.054688 150.398438 39.730469 C 93.09375 49.417969 43.765625 87.601562 12.433594 117.921875 C 2.605469 127.445312 -6.613281 138.421875 -15.558594 149.09375 C -31.511719 168.199219 -48.105469 187.933594 -68.171875 198.882812 C -73.917969 202.015625 -79.757812 204.367188 -85.246094 206.738281 C -90.976562 209.058594 -96.277344 211.261719 -101.621094 214.175781 C -109.464844 218.550781 -122.945312 228.226562 -125.734375 244.320312 L -124.894531 244.445312 C -121.910156 228.648438 -108.617188 219.136719 -100.992188 214.816406 Z M -98.347656 218.277344 C -92.917969 215.6875 -87.394531 213.886719 -81.660156 212.027344 C -75.488281 210.054688 -69.132812 207.914062 -62.789062 204.855469 C -40.773438 194.3125 -23.414062 173.105469 -6.640625 152.746094 C 1.828125 142.429688 10.453125 131.839844 19.773438 122.570312 C 51.28125 91.164062 100.402344 51.765625 155.414062 42.566406 C 159.488281 41.835938 163.863281 41.375 168.378906 40.996094 C 186.484375 39.683594 205.894531 44.609375 224.675781 49.355469 C 241.476562 53.585938 258.902344 57.996094 275.242188 57.84375 C 287.332031 57.773438 299.496094 57.105469 311.433594 55.574219 C 335.199219 52.539062 354.757812 46.226562 370.96875 36.410156 C 384.011719 28.578125 396.101562 18 407.6875 4.207031 C 418.925781 -9.152344 428.761719 -24.332031 438.171875 -38.941406 C 452.992188 -61.902344 468.179688 -85.65625 489.445312 -102.117188 L 488.921875 -102.789062 C 467.6875 -86.21875 452.28125 -62.410156 437.492188 -39.339844 C 428.082031 -24.730469 418.246094 -9.550781 407.003906 3.808594 C 395.527344 17.574219 383.519531 28.015625 370.472656 35.847656 C 354.261719 45.664062 334.894531 51.8125 311.265625 54.925781 C 299.296875 56.351562 287.160156 57.125 275.179688 57.167969 C 258.949219 57.292969 241.550781 52.988281 224.855469 48.730469 C 206.074219 43.984375 186.558594 39.085938 168.316406 40.316406 C 163.800781 40.699219 159.425781 41.160156 155.242188 41.917969 C 99.988281 51.066406 50.675781 90.628906 19.089844 122.171875 C 9.878906 131.414062 1.144531 142.03125 -7.320312 152.347656 C -23.988281 172.679688 -41.265625 193.75 -63.175781 204.265625 C -69.519531 207.324219 -75.796875 209.324219 -81.9375 211.40625 C -87.78125 213.296875 -93.195312 215.070312 -98.734375 217.683594 C -105.511719 220.859375 -121.648438 230.078125 -124.691406 247.394531 L -123.851562 247.519531 C -120.859375 230.449219 -105.015625 221.421875 -98.347656 218.277344 Z M -95.894531 221.902344 C -90.242188 219.71875 -84.632812 218.238281 -78.675781 216.78125 C -71.988281 215.019531 -65.058594 213.308594 -58.304688 210.488281 C -34.414062 200.488281 -16.476562 177.976562 0.875 156.308594 C 8.859375 146.351562 17.109375 136.089844 25.808594 127.097656 C 71.984375 79.582031 116.960938 52.015625 159.640625 45.03125 C 163.957031 44.355469 168.226562 43.921875 172.632812 43.566406 C 190.582031 42.527344 209.835938 48.191406 228.574219 53.640625 C 245.332031 58.574219 262.605469 63.71875 278.78125 63.839844 C 290.824219 64.011719 302.988281 63.34375 314.875 62.058594 C 338.667969 59.132812 357.980469 52.765625 374.105469 42.625 C 386.769531 34.664062 398.449219 23.847656 409.894531 9.511719 C 420.03125 -3.207031 428.933594 -17.566406 437.488281 -31.484375 C 452.425781 -55.75 467.867188 -80.722656 490.292969 -97.144531 L 489.769531 -97.816406 C 467.15625 -81.230469 451.636719 -56.117188 436.699219 -31.855469 C 428.144531 -17.933594 419.351562 -3.605469 409.210938 9.113281 C 397.984375 23.394531 386.304688 34.210938 373.71875 42.035156 C 357.703125 52.148438 338.46875 58.375 314.78125 61.273438 C 302.925781 62.667969 290.730469 63.230469 278.800781 63.027344 C 262.726562 62.878906 245.484375 57.839844 228.835938 52.878906 C 210.066406 47.320312 190.8125 41.660156 172.648438 42.753906 C 168.324219 42.972656 163.867188 43.570312 159.65625 44.21875 C 116.871094 51.230469 71.675781 78.855469 25.421875 126.507812 C 16.617188 135.527344 8.394531 145.894531 0.410156 155.855469 C -16.945312 177.519531 -34.800781 199.898438 -58.476562 209.839844 C -65.230469 212.660156 -72.128906 214.480469 -78.738281 216.105469 C -84.453125 217.613281 -90.410156 219.070312 -96.0625 221.253906 C -111.246094 227.105469 -121.515625 238.011719 -123.789062 250.390625 L -122.945312 250.515625 C -120.863281 238.304688 -110.75 227.667969 -95.894531 221.902344 Z M -93.25 225.363281 C -87.40625 223.472656 -81.359375 222.339844 -75.421875 221.238281 C -68.273438 219.929688 -60.824219 218.425781 -53.554688 215.816406 C -28.007812 206.421875 -9.464844 182.707031 8.496094 159.839844 C 16.078125 150.105469 24.03125 140.039062 32.332031 131.265625 C 78.753906 82.070312 123.207031 53.832031 164.375 47.246094 C 168.585938 46.597656 172.964844 46.136719 177.289062 45.917969 C 195.050781 45.046875 214.183594 51.546875 232.796875 57.839844 C 249.507812 63.476562 266.734375 69.328125 282.757812 69.722656 C 294.746094 70.136719 306.832031 69.605469 318.824219 68.292969 C 342.21875 65.585938 362.039062 58.972656 377.785156 48.699219 C 390.175781 40.582031 401.527344 29.386719 412.613281 14.570312 C 421.730469 2.347656 429.800781 -11.210938 437.5 -24.445312 C 452.476562 -49.871094 468.035156 -76.148438 491.761719 -92.453125 L 491.238281 -93.125 C 467.324219 -76.652344 451.765625 -50.378906 436.710938 -24.8125 C 428.984375 -11.6875 420.941406 1.980469 411.902344 14.0625 C 400.921875 28.855469 389.546875 39.9375 377.371094 48 C 361.839844 58.214844 342.125 64.800781 318.839844 67.476562 C 306.957031 68.765625 294.871094 69.296875 282.878906 68.878906 C 266.96875 68.457031 249.769531 62.714844 233.164062 57.050781 C 214.550781 50.757812 195.3125 44.285156 177.414062 45.078125 C 173.085938 45.296875 168.710938 45.757812 164.390625 46.433594 C 123.007812 53.078125 78.472656 81.449219 31.945312 130.675781 C 23.566406 139.582031 15.71875 149.621094 8.03125 159.386719 C -9.851562 182.117188 -28.3125 205.695312 -53.648438 215.03125 C -60.886719 217.75 -68.253906 219.117188 -75.40625 220.425781 C -81.34375 221.527344 -87.496094 222.6875 -93.34375 224.578125 C -117.261719 232.273438 -122 248.417969 -122.9375 253.167969 L -122.097656 253.292969 C -121.375 248.601562 -116.769531 232.835938 -93.25 225.363281 Z M -90.929688 228.90625 C -90.824219 228.878906 -90.714844 228.851562 -90.609375 228.820312 C -84.570312 227.230469 -78.195312 226.472656 -72.066406 225.664062 C -64.367188 224.671875 -56.453125 223.625 -48.804688 221.144531 C -21.460938 212.433594 -2.421875 187.546875 16.039062 163.511719 C 23.324219 153.96875 30.878906 144.121094 38.851562 135.4375 C 86.027344 83.847656 128.667969 55.742188 168.976562 49.382812 C 173.1875 48.734375 177.5625 48.273438 181.917969 48.164062 C 199.492188 47.453125 218.605469 54.769531 237.066406 61.792969 C 253.628906 68.164062 270.675781 74.640625 286.644531 75.277344 C 298.554688 75.832031 310.695312 75.515625 322.609375 74.335938 C 346.058594 71.847656 365.746094 65.152344 381.160156 54.503906 C 393.28125 46.226562 404.0625 35.070312 414.949219 19.496094 C 423.152344 7.746094 430.367188 -5.125 437.453125 -17.617188 C 452.441406 -44.320312 467.902344 -71.839844 492.851562 -87.890625 L 492.433594 -88.589844 C 467.300781 -72.375 451.730469 -44.824219 436.773438 -18.015625 C 429.792969 -5.550781 422.472656 7.351562 414.375 19.070312 C 403.488281 34.644531 392.785156 45.664062 380.773438 53.914062 C 365.441406 64.425781 345.859375 71.089844 322.546875 73.660156 C 310.632812 74.839844 298.628906 75.234375 286.6875 74.574219 C 270.933594 73.878906 253.886719 67.402344 237.464844 61.113281 C 218.976562 53.976562 199.753906 46.691406 182.070312 47.429688 C 177.714844 47.539062 173.339844 48 169.019531 48.675781 C 128.46875 54.984375 85.75 83.226562 38.386719 134.980469 C 30.410156 143.667969 22.886719 153.621094 15.492188 163.191406 C -2.886719 187.09375 -21.847656 211.839844 -48.839844 220.578125 C -56.488281 223.054688 -64.402344 224.105469 -71.992188 225.066406 C -78.121094 225.875 -84.46875 226.742188 -90.644531 228.253906 C -90.75 228.28125 -90.859375 228.3125 -90.964844 228.339844 C -104.121094 231.808594 -119.125 240.960938 -122.113281 256.300781 L -121.273438 256.425781 C -118.578125 241.28125 -103.871094 232.320312 -90.929688 228.90625 Z M -88.074219 232.308594 C -81.734375 230.984375 -75.058594 230.496094 -68.625 229.953125 C -60.601562 229.335938 -52.25 228.636719 -44.164062 226.503906 C -15.132812 218.5 4.40625 192.445312 23.257812 167.265625 C 30.246094 157.914062 37.503906 148.261719 45.15625 139.664062 C 75.414062 105.699219 121.496094 59.59375 173.496094 51.65625 C 177.707031 51.003906 182.085938 50.542969 186.332031 50.464844 C 203.746094 50.027344 222.707031 58.074219 240.910156 65.863281 C 257.421875 72.9375 274.425781 80.117188 290.128906 81.054688 C 302.097656 81.828125 314.160156 81.648438 325.996094 80.605469 C 349.363281 78.25 368.914062 71.476562 384.273438 60.613281 C 396.167969 51.933594 406.648438 40.507812 417.070312 24.480469 C 424.46875 13.175781 431.042969 0.933594 437.351562 -11.007812 C 452.160156 -38.820312 467.445312 -67.449219 493.613281 -83.242188 L 493.199219 -83.941406 C 466.816406 -68.089844 451.453125 -39.324219 436.671875 -11.40625 C 430.363281 0.535156 423.789062 12.777344 416.359375 23.972656 C 405.910156 39.894531 395.539062 51.292969 383.722656 59.835938 C 368.472656 70.671875 349 77.308594 325.875 79.710938 C 314.066406 80.863281 302.003906 81.042969 290.144531 80.242188 C 274.578125 79.382812 257.546875 72.097656 241.167969 65.101562 C 222.722656 57.261719 203.734375 49.105469 186.210938 49.570312 C 181.855469 49.679688 177.585938 50.113281 173.269531 50.789062 C 121.054688 58.789062 74.78125 105.058594 44.445312 139.15625 C 36.796875 147.757812 29.539062 157.410156 22.464844 166.894531 C 3.699219 191.9375 -15.761719 217.859375 -44.546875 225.910156 C -52.5 228.125 -60.878906 228.71875 -68.90625 229.332031 C -75.335938 229.875 -82.011719 230.367188 -88.460938 231.71875 C -101.816406 234.433594 -118.496094 243.335938 -121.667969 259.300781 L -120.828125 259.425781 C -117.601562 243.679688 -101.183594 235.074219 -88.074219 232.308594 Z M -85.539062 235.800781 C -78.898438 234.742188 -72.027344 234.546875 -65.375 234.40625 C -56.910156 234.136719 -48.09375 233.890625 -39.519531 231.859375 C -8.804688 224.566406 11.128906 197.371094 30.472656 171.019531 C 37.277344 161.835938 44.214844 152.269531 51.539062 143.753906 C 84.3125 105.777344 128.363281 61.132812 177.960938 53.710938 C 182.171875 53.0625 186.46875 52.738281 190.714844 52.65625 C 207.835938 52.414062 226.671875 61.300781 244.828125 69.792969 C 261.269531 77.464844 278.257812 85.457031 293.800781 86.671875 C 305.71875 87.683594 317.699219 87.640625 329.644531 86.570312 C 353.042969 84.324219 372.484375 77.582031 387.621094 66.3125 C 399.195312 57.71875 409.34375 45.917969 419.515625 29.378906 C 426.136719 18.625 432.121094 6.769531 437.789062 -4.542969 C 452.421875 -33.460938 467.5 -63.304688 494.839844 -78.597656 L 494.425781 -79.296875 C 466.898438 -63.839844 451.738281 -33.859375 437.136719 -4.832031 C 431.359375 6.507812 425.457031 18.226562 418.863281 29.089844 C 408.773438 45.492188 398.621094 57.292969 387.15625 65.859375 C 372.234375 77.070312 352.898438 83.785156 329.609375 86 C 317.773438 87.042969 305.789062 87.085938 293.980469 86.046875 C 278.574219 84.914062 261.585938 76.921875 245.28125 69.328125 C 226.992188 60.757812 208.152344 51.867188 190.789062 52.058594 C 186.433594 52.167969 182.136719 52.492188 177.925781 53.140625 C 128.003906 60.652344 83.847656 105.324219 50.996094 143.433594 C 43.667969 151.949219 36.625 161.542969 29.929688 170.703125 C 11.117188 196.449219 -8.417969 222.964844 -37.855469 230.730469 C -38.398438 230.871094 -39.042969 231.042969 -39.582031 231.183594 C -48.050781 233.1875 -56.867188 233.433594 -65.332031 233.703125 C -71.984375 233.839844 -78.851562 234.035156 -85.601562 235.121094 C -99.667969 237.332031 -117.304688 245.679688 -120.683594 262.160156 L -119.84375 262.285156 C -116.59375 246.183594 -99.386719 237.949219 -85.539062 235.800781 Z M -83.003906 239.289062 C -76.0625 238.496094 -68.890625 238.566406 -62.046875 238.726562 C -53.117188 238.910156 -43.863281 239.011719 -34.984375 237.246094 C -2.554688 230.773438 17.875 202.402344 37.503906 174.9375 C 43.988281 165.839844 50.734375 156.4375 57.765625 148.117188 C 96.277344 102.160156 142.703125 55.15625 195.15625 55.0625 C 212.117188 55.09375 230.910156 64.6875 248.941406 74.019531 C 265.230469 82.425781 282.171875 91.121094 297.558594 92.609375 C 337.539062 96.382812 368.855469 89.625 390.867188 72.5 C 412.878906 55.378906 425.804688 28.296875 438.253906 2.03125 C 452.601562 -27.964844 467.371094 -58.996094 495.769531 -73.761719 L 495.355469 -74.460938 C 466.765625 -59.53125 451.890625 -28.46875 437.464844 1.664062 C 424.988281 27.820312 412.140625 54.765625 390.207031 71.75 C 368.382812 88.707031 337.171875 95.4375 297.4375 91.714844 C 282.1875 90.308594 265.382812 81.695312 249.203125 73.257812 C 231.035156 63.847656 212.214844 54.144531 195.035156 54.171875 C 142.230469 54.242188 95.617188 101.410156 57.027344 147.503906 C 50.023438 155.933594 43.277344 165.332031 36.796875 174.433594 C 17.246094 201.761719 -2.96875 230.074219 -35.183594 236.492188 C -43.953125 238.226562 -53.207031 238.125 -62.136719 237.941406 C -69.089844 237.8125 -76.261719 237.742188 -83.203125 238.53125 C -99.113281 240.304688 -116.714844 249.21875 -120.160156 265.023438 L -119.320312 265.148438 C -115.867188 249.804688 -98.5625 241.082031 -83.003906 239.289062 Z M -83.003906 239.289062 " fill-opacity="1" fill-rule="nonzero"/></g></g></g><g clip-path="url(#8861531955)"><g clip-path="url(#bd0ceb2a35)"><g clip-path="url(#0b96eba02d)"><path fill="#ffffff" d="M 1377.804688 249.085938 L 1378.894531 249.171875 C 1377.246094 314.007812 1339.484375 382.890625 1278.097656 433.296875 C 1230.332031 472.59375 1169.027344 501.339844 1085.460938 523.703125 C 1051.773438 532.675781 1017.125 540.15625 983.566406 547.273438 C 948.464844 554.757812 912.101562 562.515625 876.832031 572.175781 C 836.132812 583.21875 783.964844 600.105469 740.917969 632.355469 C 694.941406 666.660156 664.425781 715.851562 634.808594 763.226562 C 632.964844 766.269531 630.988281 769.359375 629.011719 772.449219 L 628.058594 771.863281 C 630.035156 768.773438 631.878906 765.730469 633.855469 762.640625 C 663.5625 715.085938 694.078125 665.894531 740.144531 631.410156 C 783.28125 598.972656 835.628906 582.175781 876.417969 570.953125 C 911.6875 561.296875 948.054688 553.535156 983.152344 546.050781 C 1016.714844 538.9375 1051.359375 531.453125 1084.914062 522.527344 C 1168.34375 500.210938 1229.378906 471.554688 1277.1875 432.394531 C 1338.621094 382.125 1376.203125 313.605469 1377.804688 249.085938 Z M 1367.578125 289.449219 C 1362.480469 303.421875 1356.160156 316.90625 1348.566406 329.757812 C 1326.558594 367.902344 1299.007812 401.722656 1268.882812 427.492188 C 1220.851562 468.234375 1157.066406 499.488281 1079.242188 520.058594 C 1073.679688 521.484375 1068.117188 522.914062 1062.375 524.25 C 1035.828125 530.65625 1008.59375 535.480469 982.171875 540.03125 C 961.046875 543.695312 939.378906 547.546875 918.121094 552.164062 C 900.660156 555.949219 885.285156 559.636719 871.402344 563.273438 C 840.0625 571.601562 815.203125 580.3125 792.886719 590.734375 C 773.007812 599.878906 754.132812 611.554688 736.8125 625.125 C 718.949219 639.332031 701.824219 657.074219 684.769531 679.480469 C 669.558594 699.292969 655.578125 720.960938 642.089844 741.859375 C 636.921875 749.808594 631.660156 757.9375 626.355469 765.933594 L 627.308594 766.519531 C 632.613281 758.523438 637.875 750.394531 643.042969 742.441406 C 669.878906 700.699219 697.796875 657.679688 737.539062 625.9375 C 754.726562 612.410156 773.507812 600.917969 793.386719 591.773438 C 815.570312 581.398438 840.429688 572.6875 871.632812 564.40625 C 885.652344 560.722656 900.890625 557.082031 918.351562 553.292969 C 939.609375 548.675781 961.277344 544.828125 982.40625 541.160156 C 1008.824219 536.613281 1036.195312 531.742188 1062.742188 525.335938 C 1068.347656 524.046875 1074.046875 522.570312 1079.609375 521.144531 C 1157.523438 500.390625 1221.488281 469.230469 1269.609375 428.304688 C 1299.871094 402.492188 1327.558594 368.625 1349.519531 330.34375 C 1357.113281 317.488281 1363.523438 303.828125 1368.621094 289.851562 C 1373.898438 275.511719 1376.863281 260.59375 1377.609375 245.371094 L 1376.519531 245.285156 C 1375.867188 260.328125 1372.765625 275.292969 1367.578125 289.449219 Z M 1364.027344 285.203125 C 1357.664062 299.457031 1349.800781 311.945312 1342.15625 323.304688 C 1321.605469 354.152344 1293.714844 393.230469 1260.300781 422.679688 C 1211.738281 465.417969 1147.011719 498.351562 1073.164062 517.726562 C 1067.601562 519.15625 1062.039062 520.582031 1056.433594 521.875 C 1030.789062 527.824219 1004.183594 531.375 978.484375 534.925781 C 956.808594 537.867188 934.414062 540.90625 912.65625 545.390625 C 895.375 548.8125 880.089844 552.320312 865.933594 556.046875 C 835.230469 564.011719 809.738281 573.085938 787.964844 583.777344 C 768.359375 593.28125 750.03125 605.226562 733.296875 619.203125 C 698.570312 648.34375 673.4375 686.636719 649.113281 723.753906 C 641.246094 735.789062 632.929688 748.285156 624.609375 760.324219 L 625.425781 760.953125 C 633.882812 748.867188 642.066406 736.421875 649.933594 724.382812 C 674.300781 687.40625 699.296875 649.15625 733.890625 620.0625 C 750.488281 606.132812 768.859375 594.320312 788.332031 584.863281 C 810.105469 574.171875 835.597656 565.097656 866.167969 557.179688 C 880.320312 553.449219 895.519531 550.125 912.75 546.566406 C 934.371094 542.128906 956.769531 539.09375 978.441406 536.148438 C 1004.144531 532.601562 1030.75 529.046875 1056.390625 523.097656 C 1062 521.804688 1067.5625 520.378906 1073.125 518.953125 C 1147.242188 499.480469 1212.105469 466.503906 1260.804688 423.71875 C 1294.355469 394.222656 1322.199219 355.007812 1342.746094 324.164062 C 1350.34375 312.667969 1358.210938 300.179688 1364.574219 285.925781 C 1371.609375 270.085938 1375.347656 255.664062 1375.960938 241.84375 L 1374.875 241.757812 C 1374.621094 255.304688 1370.972656 269.546875 1364.027344 285.203125 Z M 1360.339844 281.003906 C 1353.203125 293.855469 1344.289062 305.492188 1335.742188 316.851562 C 1331.015625 322.988281 1326.472656 329.214844 1321.429688 335.757812 C 1299.964844 364.34375 1277.964844 394.019531 1251.722656 417.867188 C 1202.039062 463.105469 1138.175781 496.800781 1067.175781 515.214844 C 1061.613281 516.644531 1056.007812 517.933594 1050.398438 519.226562 C 1025.386719 524.8125 999.046875 527.367188 973.703125 529.734375 C 951.757812 531.863281 929.21875 534.039062 907.371094 538.253906 C 890.316406 541.449219 875.074219 544.636719 860.738281 548.277344 C 830.210938 555.878906 804.765625 565.089844 783.175781 576.320312 C 763.84375 586.1875 745.925781 598.449219 729.78125 612.832031 C 699.480469 639.867188 676.640625 674.210938 654.65625 707.511719 C 644.492188 723.046875 633.882812 739.039062 622.679688 754.171875 L 623.496094 754.800781 C 634.699219 739.667969 645.3125 723.675781 655.609375 708.09375 C 677.457031 674.84375 700.164062 640.542969 730.511719 613.644531 C 746.652344 599.261719 764.433594 587.046875 783.632812 577.226562 C 805.265625 566.128906 830.578125 556.964844 861.058594 549.226562 C 875.257812 545.632812 890.636719 542.398438 907.554688 539.25 C 929.269531 535.082031 951.941406 532.859375 973.753906 530.777344 C 999.050781 528.273438 1025.390625 525.714844 1050.582031 520.222656 C 1056.191406 518.929688 1061.800781 517.636719 1067.363281 516.210938 C 1138.632812 497.707031 1202.628906 463.960938 1252.40625 418.542969 C 1278.597656 394.558594 1300.785156 364.972656 1322.203125 336.253906 C 1327.0625 329.617188 1331.789062 323.484375 1336.511719 317.347656 C 1345.199219 305.941406 1354.109375 294.304688 1361.203125 281.320312 C 1369.734375 265.878906 1374.285156 251.636719 1375.039062 237.769531 L 1373.949219 237.683594 C 1373.199219 251.550781 1368.78125 265.75 1360.339844 281.003906 Z M 1356.609375 276.671875 C 1350.089844 286.4375 1342.566406 295.03125 1334.59375 304.082031 C 1332.882812 306.171875 1330.992188 308.171875 1329.144531 310.308594 C 1319.011719 321.90625 1309.246094 334.585938 1298.851562 348.082031 C 1281.523438 370.582031 1263.519531 393.761719 1243.144531 413.054688 C 1193.195312 460.195312 1128.570312 495.664062 1061.097656 512.882812 C 1055.535156 514.3125 1049.929688 515.601562 1044.410156 516.714844 C 1019.578125 521.933594 993.507812 523.492188 968.160156 524.957031 C 946.386719 526.269531 923.710938 527.585938 902.132812 531.253906 C 884.578125 534.316406 869.289062 537.367188 855.585938 540.640625 C 825.152344 548.058594 799.882812 557.359375 778.386719 568.867188 C 759.464844 579.046875 741.863281 591.804688 726.3125 606.59375 C 699.492188 631.847656 678.945312 663.148438 659.117188 693.449219 C 647.023438 711.753906 634.570312 730.789062 620.839844 748.289062 L 621.660156 748.917969 C 635.386719 731.421875 647.886719 712.523438 659.933594 694.078125 C 679.808594 663.914062 700.355469 632.613281 726.90625 607.453125 C 742.457031 592.664062 759.964844 580.085938 778.753906 569.953125 C 800.117188 558.492188 825.246094 549.238281 855.683594 541.820312 C 869.386719 538.546875 884.628906 535.355469 902.183594 532.292969 C 923.761719 528.625 946.300781 527.355469 968.210938 525.996094 C 993.558594 524.535156 1019.628906 522.976562 1044.597656 517.710938 C 1050.113281 516.597656 1055.859375 515.261719 1061.285156 513.878906 C 1128.890625 496.613281 1193.742188 460.917969 1243.824219 413.730469 C 1264.203125 394.4375 1282.203125 371.257812 1299.667969 348.714844 C 1310.109375 335.351562 1319.875 322.671875 1329.964844 310.941406 C 1331.808594 308.804688 1333.65625 306.667969 1335.414062 304.710938 C 1343.386719 295.664062 1350.859375 286.933594 1357.5625 277.257812 C 1367.636719 262.355469 1372.867188 248.335938 1373.664062 234.152344 L 1372.574219 234.066406 C 1371.824219 247.929688 1366.59375 261.953125 1356.609375 276.671875 Z M 1353.191406 272.382812 C 1346.9375 280.246094 1339.859375 287.023438 1332.511719 294.347656 C 1329.449219 297.351562 1326.15625 300.582031 1323.003906 303.765625 C 1309.078125 318.003906 1296.253906 334.59375 1282.523438 352.09375 C 1267.582031 371.363281 1252.097656 391.269531 1234.925781 407.96875 C 1184.128906 457.515625 1120.367188 493.75 1055.382812 510.28125 C 1050.089844 511.617188 1044.617188 512.863281 1038.648438 513.972656 C 1014.128906 518.785156 988.328125 519.34375 963.382812 519.765625 C 941.46875 520.21875 918.652344 520.671875 897.117188 524.023438 C 879.15625 526.769531 864.410156 529.640625 850.707031 532.914062 C 820.359375 540.152344 795.230469 549.40625 773.914062 561.453125 C 755.265625 571.996094 738.210938 585.023438 723.113281 600.261719 C 699.410156 624.011719 680.707031 652.71875 662.636719 680.613281 C 649.148438 701.507812 635.257812 722.992188 619.226562 742.179688 L 620.046875 742.808594 C 636.074219 723.625 649.921875 702.003906 663.589844 681.195312 C 681.523438 653.351562 700.226562 624.640625 723.84375 601.074219 C 738.804688 585.882812 755.859375 572.855469 774.417969 562.496094 C 795.597656 550.492188 820.59375 541.28125 850.800781 534.089844 C 864.507812 530.816406 879.296875 528.085938 897.214844 525.203125 C 918.75 521.851562 941.429688 521.441406 963.34375 520.988281 C 988.421875 520.523438 1014.226562 519.964844 1038.878906 515.105469 C 1044.851562 513.992188 1050.324219 512.746094 1055.613281 511.410156 C 1120.78125 494.96875 1184.765625 458.507812 1235.519531 408.828125 C 1252.78125 391.945312 1268.261719 372.039062 1283.207031 352.769531 C 1296.753906 335.179688 1309.714844 318.546875 1323.550781 304.488281 C 1326.792969 301.125 1329.996094 298.074219 1333.058594 295.070312 C 1340.453125 287.882812 1347.484375 280.96875 1353.875 273.058594 C 1365.355469 258.738281 1371.355469 244.761719 1372.421875 230.484375 L 1371.335938 230.398438 C 1370.496094 244.449219 1364.445312 258.289062 1353.191406 272.382812 Z M 1349.507812 268.183594 C 1343.378906 274.640625 1336.75 280.0625 1329.804688 285.886719 C 1325.429688 289.484375 1320.964844 293.265625 1316.453125 297.359375 C 1299.320312 312.835938 1284.425781 332.242188 1268.445312 352.921875 C 1255.125 370.28125 1241.351562 388.097656 1226.257812 403.335938 C 1174.882812 455.195312 1112.03125 492.332031 1049.304688 507.949219 C 1043.878906 509.332031 1038.222656 510.488281 1032.707031 511.597656 C 1008.550781 516.136719 982.832031 515.609375 958.015625 515.074219 C 935.964844 514.667969 913.28125 514.171875 891.789062 517.207031 C 873.601562 519.726562 858.808594 522.460938 845.332031 525.503906 C 815.027344 532.425781 789.988281 541.953125 769.039062 554.179688 C 750.660156 565.085938 734.0625 578.5625 719.554688 594.207031 C 698.558594 616.582031 681.660156 643.019531 665.433594 668.777344 C 650.734375 691.894531 635.585938 715.925781 617.4375 736.433594 L 618.300781 737.199219 C 636.539062 716.511719 651.734375 692.617188 666.386719 669.359375 C 682.65625 643.742188 699.378906 617.214844 720.285156 595.019531 C 734.652344 579.421875 751.300781 566.078125 769.539062 555.21875 C 790.445312 542.855469 815.394531 533.511719 845.5625 526.636719 C 859.039062 523.59375 873.695312 520.902344 891.886719 518.382812 C 913.378906 515.347656 936.0625 515.84375 957.976562 516.296875 C 982.925781 516.785156 1008.644531 517.3125 1032.9375 512.730469 C 1038.5 511.753906 1044.109375 510.460938 1049.671875 509.035156 C 1112.53125 493.375 1175.609375 456.007812 1227.121094 404.105469 C 1242.351562 388.820312 1256.078125 370.867188 1269.402344 353.503906 C 1285.242188 332.871094 1300.140625 313.464844 1317.183594 298.171875 C 1321.691406 294.078125 1326.15625 290.296875 1330.53125 286.699219 C 1337.476562 280.875 1344.105469 275.453125 1350.234375 268.996094 C 1363.078125 255.578125 1370.074219 241.414062 1371.183594 226.820312 L 1370.097656 226.734375 C 1368.984375 240.875 1362.078125 254.855469 1349.507812 268.183594 Z M 1345.910156 263.804688 C 1339.777344 269.355469 1333.277344 273.824219 1326.328125 278.746094 C 1320.957031 282.527344 1315.453125 286.355469 1309.996094 290.773438 C 1290.148438 306.710938 1273.765625 328.433594 1256.171875 351.476562 C 1244.066406 367.519531 1231.375 384.0625 1217.765625 398.34375 C 1165.8125 452.515625 1103.824219 490.417969 1043.316406 505.4375 C 1038.027344 506.773438 1032.507812 507.882812 1026.671875 508.949219 C 1002.695312 513.125 977.242188 511.597656 952.425781 510.160156 C 930.371094 508.847656 907.679688 507.445312 886.367188 510.113281 C 868.40625 512.410156 853.65625 514.824219 840.042969 517.917969 C 809.558594 524.746094 784.65625 534.226562 764.160156 546.90625 C 746.191406 558.125 730 571.917969 716.085938 587.96875 C 697.394531 609.113281 682.160156 633.777344 667.507812 657.484375 C 652.003906 682.695312 635.917969 708.855469 615.734375 730.503906 L 616.597656 731.269531 C 636.917969 709.578125 653.003906 683.414062 668.644531 658.160156 C 683.25 634.316406 698.394531 609.832031 717.085938 588.691406 C 730.910156 572.820312 747.101562 559.027344 764.933594 547.855469 C 785.429688 535.175781 810.0625 525.785156 840.546875 518.957031 C 854.160156 515.863281 868.90625 513.449219 886.734375 511.199219 C 908.046875 508.53125 930.738281 509.933594 952.65625 511.292969 C 977.476562 512.730469 1003.109375 514.347656 1027.085938 510.171875 C 1032.921875 509.105469 1038.4375 507.996094 1043.730469 506.660156 C 1104.421875 491.730469 1166.453125 453.507812 1218.675781 399.246094 C 1232.417969 384.917969 1244.976562 368.421875 1257.214844 352.332031 C 1274.675781 329.335938 1291.058594 307.613281 1310.816406 291.855469 C 1316.273438 287.4375 1321.777344 283.609375 1327.148438 279.828125 C 1334.097656 274.90625 1340.597656 270.441406 1346.730469 264.886719 C 1356.46875 256.148438 1368.535156 241.78125 1370.125 223.246094 L 1369.039062 223.160156 C 1367.265625 241.152344 1355.558594 255.246094 1345.910156 263.804688 Z M 1342.359375 259.558594 C 1336.132812 264.386719 1329.585938 268.265625 1322.496094 272.328125 C 1316.308594 275.929688 1309.898438 279.761719 1303.582031 284.320312 C 1281.199219 300.359375 1262.570312 325.261719 1244.707031 349.304688 C 1233.503906 364.4375 1221.847656 380.023438 1209.1875 393.53125 C 1156.746094 449.835938 1095.714844 488.777344 1037.375 503.058594 C 1031.902344 504.304688 1026.382812 505.417969 1020.820312 506.390625 C 997.203125 510.292969 971.703125 507.726562 947.105469 505.152344 C 925.183594 502.886719 902.351562 500.625 881.21875 502.933594 C 865.742188 504.535156 850.222656 506.910156 834.980469 510.097656 C 804.675781 516.566406 780.089844 526.089844 759.507812 539.40625 C 741.8125 550.984375 726.03125 565.09375 712.707031 581.550781 C 696.046875 601.554688 682.207031 624.535156 669.042969 646.832031 C 652.824219 673.945312 636.203125 702.105469 614.074219 724.257812 L 614.800781 725.070312 C 636.882812 702.78125 653.640625 674.578125 669.863281 647.464844 C 683.070312 625.300781 696.863281 602.183594 713.433594 582.363281 C 726.667969 566.089844 742.40625 551.84375 760.007812 540.445312 C 780.367188 527.359375 804.953125 517.835938 835.078125 511.277344 C 850.320312 508.089844 865.839844 505.714844 881.316406 504.109375 C 902.449219 501.804688 925.140625 504.109375 947.019531 506.242188 C 971.75 508.765625 997.253906 511.335938 1021.003906 507.386719 C 1026.570312 506.410156 1032.089844 505.300781 1037.695312 504.011719 C 1096.21875 489.816406 1157.519531 450.78125 1210.1875 394.25 C 1222.800781 380.609375 1234.457031 365.019531 1245.660156 349.886719 C 1263.523438 325.847656 1282.015625 300.988281 1304.308594 285.132812 C 1310.628906 280.574219 1316.949219 276.925781 1323.089844 273.183594 C 1329.996094 269.035156 1336.679688 265.109375 1343.085938 260.371094 C 1362.53125 245.476562 1367.800781 229.78125 1368.613281 219.21875 L 1367.527344 219.132812 C 1365.984375 237.804688 1352.914062 251.453125 1342.359375 259.558594 Z M 1338.671875 255.363281 C 1332.214844 259.511719 1325.484375 262.84375 1318.484375 266.273438 C 1311.480469 269.699219 1304.210938 273.21875 1297.167969 277.867188 C 1272.292969 293.691406 1252.769531 320.410156 1233.78125 346.492188 C 1223.253906 360.945312 1212.410156 375.804688 1200.65625 388.855469 C 1132.953125 463.929688 1071.140625 491.1875 1031.296875 500.730469 C 1025.824219 501.976562 1020.304688 503.085938 1014.832031 503.878906 C 991.394531 507.417969 966.023438 503.898438 941.558594 500.375 C 919.679688 497.335938 896.980469 494.125 875.890625 496.113281 C 860.457031 497.398438 844.894531 499.636719 829.785156 502.78125 C 799.570312 509.066406 775.03125 518.726562 754.808594 532.222656 C 738.289062 543.253906 723.414062 557.359375 709.328125 575.582031 C 694.429688 594.539062 682.078125 616.109375 670.085938 636.953125 C 653.421875 665.878906 636.21875 695.898438 612.328125 718.648438 L 613.054688 719.460938 C 637.082031 696.664062 654.285156 666.648438 671.039062 637.539062 C 683.03125 616.691406 695.382812 595.121094 710.144531 576.214844 C 724.277344 558.125 739.019531 544.066406 755.402344 533.078125 C 775.625 519.585938 800.027344 509.972656 830.109375 503.730469 C 845.261719 500.722656 860.824219 498.484375 876.210938 497.0625 C 897.164062 495.121094 919.863281 498.332031 941.746094 501.371094 C 966.347656 504.847656 991.898438 508.457031 1015.425781 504.734375 C 1021.035156 503.898438 1026.550781 502.789062 1032.023438 501.542969 C 1104.566406 484.117188 1164.402344 430.910156 1201.878906 389.347656 C 1213.636719 376.296875 1224.476562 361.4375 1235.007812 346.988281 C 1253.765625 321.132812 1273.292969 294.410156 1298.03125 278.632812 C 1305.117188 274.121094 1312.390625 270.601562 1319.210938 267.085938 C 1326.351562 263.613281 1332.945312 260.324219 1339.535156 256.128906 C 1349.195312 249.835938 1365.613281 236.269531 1367.78125 215.417969 L 1366.695312 215.332031 C 1364.253906 235.820312 1348.0625 249.160156 1338.671875 255.363281 Z M 1334.984375 251.164062 C 1328.257812 254.953125 1321.34375 257.742188 1314.15625 260.628906 C 1306.429688 263.695312 1298.476562 266.988281 1290.617188 271.460938 C 1263.34375 286.886719 1242.964844 315.558594 1223.261719 343.09375 C 1213.320312 357.042969 1203.199219 371.355469 1192.074219 384.042969 C 1154.46875 427.011719 1095.003906 481.757812 1025.355469 498.351562 C 1020.199219 499.640625 1014.636719 500.617188 1008.890625 501.5 C 985.8125 504.765625 960.53125 500.160156 936.058594 495.730469 C 914.175781 491.789062 891.472656 487.667969 870.5625 489.292969 C 855.082031 490.445312 839.5625 492.367188 824.410156 495.375 C 794.238281 501.34375 769.746094 511.136719 749.84375 525.128906 C 733.820312 536.292969 719.265625 550.898438 705.632812 569.574219 C 692.40625 587.660156 681.132812 607.957031 670.359375 627.480469 C 653.386719 658.179688 636.011719 689.917969 610.21875 712.859375 L 610.945312 713.671875 C 636.691406 690.59375 654.339844 658.761719 671.265625 627.933594 C 682.042969 608.40625 693.3125 588.109375 706.539062 570.023438 C 720.035156 551.390625 734.503906 536.972656 750.523438 525.804688 C 770.425781 511.816406 794.695312 502.246094 824.683594 496.1875 C 839.882812 493.316406 855.359375 491.257812 870.703125 490.152344 C 891.476562 488.574219 914.132812 492.558594 935.882812 496.546875 C 960.351562 500.976562 985.773438 505.539062 1009.027344 502.363281 C 1014.773438 501.476562 1020.339844 500.503906 1025.628906 499.167969 C 1095.59375 482.613281 1155.285156 427.640625 1192.984375 384.492188 C 1203.972656 371.851562 1214.226562 357.492188 1224.167969 343.542969 C 1243.738281 316.054688 1264.027344 287.5625 1291.164062 272.183594 C 1299.023438 267.710938 1306.886719 264.597656 1314.566406 261.394531 C 1321.890625 258.464844 1328.667969 255.71875 1335.53125 251.886719 C 1343.933594 247.230469 1363.792969 234.011719 1366.179688 211.574219 L 1365.089844 211.488281 C 1362.75 233.605469 1343.25 246.554688 1334.984375 251.164062 Z M 1331.523438 246.738281 C 1324.476562 250.027344 1317.425781 252.414062 1309.917969 254.800781 C 1301.511719 257.644531 1292.785156 260.441406 1284.382812 264.644531 C 1254.660156 279.539062 1233.660156 309.933594 1213.328125 339.191406 C 1203.972656 352.640625 1194.304688 366.5 1183.945312 378.773438 C 1128.964844 443.652344 1073.773438 482.886719 1019.726562 495.566406 C 1014.253906 496.8125 1008.828125 497.742188 1003.214844 498.578125 C 980.320312 501.484375 955.167969 495.921875 930.695312 490.585938 C 908.804688 485.738281 886.234375 480.667969 865.503906 481.929688 C 850.066406 482.765625 834.546875 484.683594 819.4375 487.375 C 789.222656 493.207031 765.042969 503.046875 745.28125 517.445312 C 729.757812 528.746094 715.746094 543.617188 702.34375 562.972656 C 690.46875 580.144531 680.324219 599.308594 670.585938 617.875 C 653.574219 650.25 635.980469 683.574219 608.695312 706.566406 L 609.421875 707.378906 C 636.933594 684.160156 654.617188 650.652344 671.628906 618.28125 C 681.367188 599.710938 691.375 580.597656 703.25 563.421875 C 716.382812 544.160156 730.394531 529.285156 745.828125 518.167969 C 765.453125 503.816406 789.542969 494.15625 819.625 488.371094 C 834.6875 485.546875 850.253906 483.757812 865.554688 482.972656 C 886.148438 481.753906 908.671875 486.691406 930.425781 491.585938 C 954.945312 497.054688 980.097656 502.617188 1003.265625 499.621094 C 1008.789062 498.964844 1014.441406 497.808594 1019.777344 496.609375 C 1073.960938 483.882812 1129.421875 444.554688 1184.492188 379.496094 C 1194.984375 367.175781 1204.609375 353.183594 1213.964844 339.734375 C 1234.292969 310.472656 1255.207031 280.261719 1284.660156 265.460938 C 1293.0625 261.257812 1301.742188 258.320312 1310.058594 255.660156 C 1317.246094 253.230469 1324.75 250.84375 1331.800781 247.550781 C 1350.730469 238.730469 1362.929688 223.867188 1364.757812 207.820312 L 1363.671875 207.734375 C 1362.070312 223.550781 1350.046875 238.054688 1331.523438 246.738281 Z M 1327.835938 242.539062 C 1320.515625 245.46875 1312.875 247.449219 1305.367188 249.382812 C 1296.324219 251.683594 1286.917969 254.261719 1277.835938 258.238281 C 1245.9375 272.503906 1224.261719 304.488281 1203.261719 335.339844 C 1194.402344 348.46875 1185.09375 362.050781 1175.230469 374.007812 C 1120.078125 441.058594 1065.617188 481.105469 1013.46875 493.144531 C 1008.132812 494.347656 1002.566406 495.320312 997.046875 495.976562 C 974.375 498.652344 949.308594 492.003906 924.921875 485.582031 C 903.027344 479.828125 880.453125 473.847656 859.902344 474.75 C 844.511719 475.265625 829.078125 477.003906 813.832031 479.742188 C 784.113281 485.253906 759.304688 495.460938 740.039062 509.992188 C 724.878906 521.46875 711.320312 536.792969 698.417969 556.734375 C 687.8125 573.179688 678.65625 591.25 669.957031 608.863281 C 652.996094 642.730469 635.367188 677.734375 606.40625 700.6875 L 607.132812 701.5 C 636.320312 678.320312 653.949219 643.316406 671 609.265625 C 679.746094 591.789062 688.855469 573.582031 699.375 557.320312 C 712.140625 537.425781 725.742188 522.238281 740.632812 510.851562 C 759.625 496.410156 784.300781 486.25 813.882812 480.78125 C 828.992188 478.09375 844.425781 476.351562 859.816406 475.835938 C 880.230469 474.984375 902.757812 480.824219 924.519531 486.625 C 948.90625 493.050781 974.109375 499.652344 996.960938 497.066406 C 1002.480469 496.40625 1008.046875 495.433594 1013.519531 494.1875 C 1065.9375 482.058594 1120.488281 441.828125 1175.777344 374.730469 C 1185.726562 362.59375 1194.902344 349.054688 1203.898438 335.878906 C 1224.808594 305.210938 1246.394531 273.410156 1278.019531 259.234375 C 1287.058594 255.121094 1296.371094 252.726562 1305.417969 250.425781 C 1312.925781 248.492188 1320.703125 246.464844 1328.023438 243.535156 C 1357.984375 231.585938 1362.640625 210.5 1363.429688 204.335938 L 1362.34375 204.25 C 1361.828125 210.324219 1357.304688 230.910156 1327.835938 242.539062 Z M 1324.558594 238.203125 C 1324.421875 238.25 1324.285156 238.296875 1324.152344 238.339844 C 1316.554688 240.910156 1308.460938 242.4375 1300.679688 244.011719 C 1290.910156 245.953125 1280.867188 247.988281 1271.285156 251.832031 C 1237.03125 265.382812 1214.820312 298.910156 1193.28125 331.300781 C 1184.78125 344.15625 1175.96875 357.421875 1166.515625 369.242188 C 1110.609375 439.421875 1058.453125 479.144531 1007.390625 490.816406 C 1002.054688 492.015625 996.488281 492.988281 990.921875 493.511719 C 968.476562 495.957031 943.359375 488.269531 919.105469 480.894531 C 897.339844 474.1875 874.945312 467.394531 854.4375 467.976562 C 839.136719 468.3125 823.613281 469.777344 808.457031 472.332031 C 778.644531 477.574219 754.015625 487.871094 735.207031 502.851562 C 720.410156 514.511719 707.578125 529.742188 694.996094 550.632812 C 685.515625 566.394531 677.398438 583.507812 669.417969 600.121094 C 652.558594 635.621094 635.160156 672.207031 604.613281 694.941406 L 605.207031 695.796875 C 635.976562 672.839844 653.511719 636.203125 670.324219 600.570312 C 678.171875 584.003906 686.421875 566.84375 695.769531 551.128906 C 708.347656 530.238281 721.09375 515.1875 735.753906 503.574219 C 754.472656 488.773438 778.964844 478.527344 808.597656 473.195312 C 823.753906 470.640625 839.09375 469.082031 854.441406 468.882812 C 874.675781 468.390625 897.074219 475.183594 918.65625 481.800781 C 942.957031 489.3125 968.210938 496.957031 990.792969 494.460938 C 996.359375 493.941406 1001.921875 492.96875 1007.394531 491.722656 C 1058.773438 480.09375 1111.019531 440.191406 1167.152344 369.78125 C 1176.605469 357.964844 1185.375 344.5625 1194.007812 331.660156 C 1215.453125 299.453125 1237.578125 266.105469 1271.378906 252.558594 C 1280.960938 248.710938 1291.003906 246.675781 1300.636719 244.78125 C 1308.417969 243.207031 1316.46875 241.542969 1324.246094 239.066406 C 1324.378906 239.019531 1324.515625 238.972656 1324.652344 238.929688 C 1341.195312 233.332031 1359.609375 220.300781 1362.097656 200.402344 L 1361.011719 200.3125 C 1358.882812 219.941406 1340.832031 232.699219 1324.558594 238.203125 Z M 1320.601562 234.097656 C 1312.597656 236.351562 1304.089844 237.5625 1295.902344 238.820312 C 1285.675781 240.3125 1275.042969 241.941406 1264.871094 245.378906 C 1228.394531 258.171875 1205.648438 293.238281 1183.707031 327.128906 C 1175.570312 339.710938 1167.121094 352.703125 1158.074219 364.382812 C 1122.292969 410.515625 1067.300781 473.578125 1001.402344 488.304688 C 996.066406 489.503906 990.503906 490.476562 985.070312 490.953125 C 962.804688 493.039062 937.820312 484.394531 913.828125 476.023438 C 892.0625 468.410156 869.660156 460.710938 849.46875 460.882812 C 834.074219 460.945312 818.644531 462.234375 803.578125 464.605469 C 773.855469 469.667969 749.410156 480.050781 730.691406 495.304688 C 716.210938 507.460938 703.789062 523.007812 691.84375 544.441406 C 683.355469 559.5625 676.007812 575.8125 668.972656 591.652344 C 652.433594 628.554688 635.359375 666.542969 603.226562 689.054688 L 603.820312 689.914062 C 636.222656 667.308594 653.386719 629.136719 669.878906 592.101562 C 676.914062 576.261719 684.265625 560.011719 692.796875 545.023438 C 704.789062 523.726562 717.074219 508.226562 731.464844 496.253906 C 750.046875 481.046875 774.402344 470.84375 803.808594 465.738281 C 818.828125 463.230469 834.261719 461.941406 849.519531 461.925781 C 869.53125 461.660156 891.976562 469.5 913.5625 477.019531 C 937.871094 485.4375 962.902344 494.214844 985.304688 492.085938 C 990.871094 491.5625 996.296875 490.632812 1001.769531 489.386719 C 1067.941406 474.574219 1123.15625 411.28125 1159.027344 364.96875 C 1168.074219 353.289062 1176.523438 340.296875 1184.75 327.53125 C 1206.601562 293.824219 1229.257812 258.9375 1265.417969 246.101562 C 1275.410156 242.574219 1286.085938 241.078125 1296.3125 239.589844 C 1304.5 238.332031 1313.007812 237.117188 1321.144531 234.820312 C 1338.011719 230.175781 1358.597656 217.3125 1361.265625 196.597656 L 1360.179688 196.511719 C 1357.421875 216.957031 1337.148438 229.40625 1320.601562 234.097656 Z M 1317.046875 229.851562 C 1308.636719 231.789062 1299.855469 232.640625 1291.347656 233.402344 C 1280.53125 234.488281 1269.265625 235.578125 1258.460938 238.929688 C 1219.757812 250.957031 1196.609375 287.523438 1174.136719 322.953125 C 1166.226562 335.308594 1158.179688 348.164062 1149.539062 359.707031 C 1110.886719 411.195312 1058.375 472.210938 995.507812 486.0625 C 990.171875 487.261719 984.695312 488.054688 979.265625 488.53125 C 957.359375 490.339844 932.460938 480.613281 908.464844 471.332031 C 886.742188 462.949219 864.289062 454.207031 844.277344 454.019531 C 828.925781 453.765625 813.582031 454.871094 798.382812 457.289062 C 768.613281 462.214844 744.304688 472.550781 725.902344 488.304688 C 711.832031 500.320312 699.863281 516.316406 688.285156 538.382812 C 680.742188 552.730469 674.117188 568.433594 667.847656 583.410156 C 651.632812 621.714844 634.925781 661.246094 601.253906 683.21875 L 601.847656 684.078125 C 635.746094 661.875 652.539062 622.164062 668.707031 583.722656 C 675.113281 568.703125 681.652344 553.179688 689.144531 538.699219 C 700.636719 516.8125 712.605469 500.816406 726.539062 488.84375 C 744.667969 473.183594 768.84375 462.890625 798.476562 458.011719 C 813.542969 455.640625 828.886719 454.535156 844.097656 454.835938 C 863.929688 454.933594 886.382812 463.675781 907.925781 471.96875 C 932.101562 481.339844 957 491.066406 979.222656 489.300781 C 984.789062 488.777344 990.265625 487.984375 995.601562 486.785156 C 1058.875 472.796875 1111.523438 411.738281 1150.265625 360.066406 C 1158.90625 348.523438 1167.085938 335.621094 1174.863281 323.3125 C 1196.707031 288.699219 1219.40625 253.042969 1256.429688 240.523438 C 1257.105469 240.292969 1257.921875 240.019531 1258.597656 239.789062 C 1269.269531 236.484375 1280.535156 235.394531 1291.351562 234.308594 C 1299.859375 233.546875 1308.640625 232.695312 1317.1875 230.714844 C 1335.007812 226.652344 1356.863281 214.421875 1359.753906 193.027344 L 1358.667969 192.9375 C 1355.910156 213.835938 1334.597656 225.882812 1317.046875 229.851562 Z M 1313.496094 225.609375 C 1304.675781 227.230469 1295.488281 227.765625 1286.707031 228.164062 C 1275.253906 228.710938 1263.394531 229.394531 1252.179688 232.429688 C 1211.214844 243.5625 1187.527344 281.671875 1164.789062 318.550781 C 1157.285156 330.769531 1149.464844 343.398438 1141.1875 354.667969 C 1095.878906 416.875 1040.535156 481.121094 973.367188 485.835938 C 951.640625 487.285156 926.734375 476.648438 902.828125 466.28125 C 881.234375 456.949219 858.777344 447.300781 838.945312 446.746094 C 787.417969 445.417969 747.898438 456.816406 721.207031 480.664062 C 694.511719 504.515625 680.324219 540.320312 666.675781 575.035156 C 650.921875 614.695312 634.722656 655.71875 599.640625 677.109375 L 600.234375 677.96875 C 635.539062 656.347656 651.875 615.28125 667.71875 575.4375 C 681.414062 540.859375 695.511719 505.234375 722.113281 481.566406 C 748.582031 457.945312 787.964844 446.59375 839.175781 447.878906 C 858.828125 448.339844 881.101562 457.898438 902.5625 467.28125 C 926.652344 477.738281 951.601562 488.507812 973.597656 486.96875 C 1041.21875 482.25 1096.789062 417.777344 1142.1875 355.386719 C 1150.417969 343.980469 1158.238281 331.355469 1165.742188 319.136719 C 1188.390625 282.4375 1211.804688 244.421875 1252.503906 233.378906 C 1263.582031 230.390625 1275.441406 229.707031 1286.890625 229.160156 C 1295.808594 228.71875 1304.996094 228.179688 1313.820312 226.558594 C 1334.039062 222.898438 1355.804688 209.941406 1358.832031 189.40625 L 1357.746094 189.320312 C 1354.667969 209.265625 1333.265625 221.949219 1313.496094 225.609375 Z M 1313.496094 225.609375 " fill-opacity="1" fill-rule="nonzero"/></g></g></g></svg>